<?xml version="1.0" encoding="UTF-8"?>
<svg width="600" height="400" viewBox="0 0 600 400" xmlns="http://www.w3.org/2000/svg">
  <!-- Fundo gradiente -->
  <defs>
    <linearGradient id="bg-gradient" x1="0%" y1="0%" x2="100%" y2="100%">
      <stop offset="0%" stop-color="#f8f9fa"/>
      <stop offset="100%" stop-color="#e9ecef"/>
    </linearGradient>
    
    <linearGradient id="screen-gradient" x1="0%" y1="0%" x2="100%" y2="100%">
      <stop offset="0%" stop-color="#0d6efd"/>
      <stop offset="100%" stop-color="#0a58ca"/>
    </linearGradient>
    
    <linearGradient id="processor-gradient" x1="0%" y1="0%" x2="100%" y2="100%">
      <stop offset="0%" stop-color="#6c757d"/>
      <stop offset="100%" stop-color="#495057"/>
    </linearGradient>
    
    <filter id="shadow" x="-20%" y="-20%" width="140%" height="140%">
      <feDropShadow dx="3" dy="3" stdDeviation="5" flood-opacity="0.2"/>
    </filter>
    
    <clipPath id="screen-clip">
      <rect x="160" y="80" width="280" height="200" rx="4"/>
    </clipPath>
  </defs>
  
  <!-- Background -->
  <rect width="600" height="400" rx="15" fill="url(#bg-gradient)"/>
  
  <!-- Monitor/Desktop -->
  <g filter="url(#shadow)">
    <!-- Monitor frame -->
    <rect x="150" y="70" width="300" height="220" rx="10" fill="#343a40"/>
    
    <!-- Screen -->
    <rect x="160" y="80" width="280" height="200" rx="4" fill="url(#screen-gradient)"/>
    
    <!-- Screen content -->
    <g clip-path="url(#screen-clip)">
      <!-- Graphs and charts -->
      <rect x="170" y="100" width="120" height="80" rx="4" fill="#ffffff" opacity="0.9"/>
      <rect x="180" y="110" width="100" height="15" rx="2" fill="#6c757d" opacity="0.7"/>
      
      <!-- Bar charts -->
      <rect x="180" y="135" width="60" height="10" rx="2" fill="#28a745"/>
      <rect x="180" y="150" width="40" height="10" rx="2" fill="#ffc107"/>
      <rect x="180" y="165" width="80" height="10" rx="2" fill="#dc3545"/>
      
      <!-- Right side panel -->
      <rect x="310" y="100" width="120" height="160" rx="4" fill="#ffffff" opacity="0.9"/>
      
      <!-- Circles representing gauges or indicators -->
      <circle cx="340" cy="130" r="20" fill="#28a745" opacity="0.8"/>
      <circle cx="340" cy="180" r="20" fill="#ffc107" opacity="0.8"/>
      <circle cx="340" cy="230" r="20" fill="#dc3545" opacity="0.8"/>
      
      <!-- Text boxes -->
      <rect x="370" y="120" width="50" height="10" rx="2" fill="#6c757d" opacity="0.7"/>
      <rect x="370" y="135" width="40" height="5" rx="1" fill="#6c757d" opacity="0.5"/>
      
      <rect x="370" y="170" width="50" height="10" rx="2" fill="#6c757d" opacity="0.7"/>
      <rect x="370" y="185" width="40" height="5" rx="1" fill="#6c757d" opacity="0.5"/>
      
      <rect x="370" y="220" width="50" height="10" rx="2" fill="#6c757d" opacity="0.7"/>
      <rect x="370" y="235" width="40" height="5" rx="1" fill="#6c757d" opacity="0.5"/>
      
      <!-- Data list -->
      <rect x="170" y="190" width="120" height="70" rx="4" fill="#ffffff" opacity="0.9"/>
      <rect x="180" y="200" width="100" height="10" rx="2" fill="#6c757d" opacity="0.5"/>
      <rect x="180" y="215" width="100" height="10" rx="2" fill="#6c757d" opacity="0.5"/>
      <rect x="180" y="230" width="100" height="10" rx="2" fill="#6c757d" opacity="0.5"/>
      <rect x="180" y="245" width="60" height="10" rx="2" fill="#6c757d" opacity="0.5"/>
    </g>
    
    <!-- Stand -->
    <path d="M250,290 L350,290 L370,340 L230,340 Z" fill="#212529"/>
    
    <!-- Base -->
    <rect x="200" y="340" width="200" height="10" rx="5" fill="#212529"/>
  </g>
  
  <!-- CPU / Hardware components -->
  <g transform="translate(450, 200)">
    <!-- CPU -->
    <rect x="0" y="0" width="70" height="70" rx="5" fill="url(#processor-gradient)" filter="url(#shadow)"/>
    
    <!-- CPU pins -->
    <g fill="#adb5bd">
      <rect x="10" y="75" width="4" height="10" rx="1"/>
      <rect x="20" y="75" width="4" height="10" rx="1"/>
      <rect x="30" y="75" width="4" height="10" rx="1"/>
      <rect x="40" y="75" width="4" height="10" rx="1"/>
      <rect x="50" y="75" width="4" height="10" rx="1"/>
      <rect x="60" y="75" width="4" height="10" rx="1"/>
    </g>
    
    <!-- CPU circuits -->
    <path d="M15,15 L55,15 L55,55 L15,55 Z" fill="none" stroke="#adb5bd" stroke-width="2"/>
    <path d="M25,25 L45,25 L45,45 L25,45 Z" fill="none" stroke="#adb5bd" stroke-width="2"/>
    <path d="M35,15 L35,55" stroke="#adb5bd" stroke-width="1"/>
    <path d="M15,35 L55,35" stroke="#adb5bd" stroke-width="1"/>
  </g>
  
  <!-- Diagnostic tools -->
  <g transform="translate(80, 200)">
    <!-- Wrench -->
    <path d="M30,0 C13.4,0 0,13.4 0,30 C0,46.6 13.4,60 30,60 C35.7,60 41.1,58.4 45.6,55.6 L70,80 L80,70 L55.6,45.6 C58.4,41.1 60,35.7 60,30 C60,13.4 46.6,0 30,0 Z M30,10 C41.6,10 50,18.4 50,30 C50,41.6 41.6,50 30,50 C18.4,50 10,41.6 10,30 C10,18.4 18.4,10 30,10 Z" fill="#fd7e14" filter="url(#shadow)"/>
  </g>
  
  <!-- Data lines connecting components -->
  <g stroke="#0d6efd" stroke-width="2" stroke-dasharray="5,5" fill="none">
    <path d="M300,150 C350,150 400,170 450,200" />
    <path d="M300,250 C350,250 400,230 450,200" />
    <path d="M140,200 C170,200 190,180 220,180" />
    <path d="M140,230 C170,230 190,250 220,250" />
  </g>
  
  <!-- Diagnostic symbols -->
  <g transform="translate(100, 100)">
    <circle cx="0" cy="0" r="30" fill="#ffffff" filter="url(#shadow)"/>
    <text x="0" y="10" font-family="Arial, sans-serif" font-size="36" font-weight="bold" fill="#0d6efd" text-anchor="middle">D</text>
  </g>
  
  <g transform="translate(500, 100)">
    <circle cx="0" cy="0" r="30" fill="#ffffff" filter="url(#shadow)"/>
    <path d="M-10,-10 L10,10 M-10,10 L10,-10" stroke="#dc3545" stroke-width="4" stroke-linecap="round"/>
  </g>
  
  <g transform="translate(80, 320)">
    <circle cx="0" cy="0" r="30" fill="#ffffff" filter="url(#shadow)"/>
    <path d="M-10,0 L-3,7 L10,-7" stroke="#28a745" stroke-width="4" stroke-linecap="round" fill="none"/>
  </g>
  
  <g transform="translate(520, 320)">
    <circle cx="0" cy="0" r="30" fill="#ffffff" filter="url(#shadow)"/>
    <text x="0" y="10" font-family="Arial, sans-serif" font-size="36" font-weight="bold" fill="#fd7e14" text-anchor="middle">!</text>
  </g>
</svg> 