<svg xmlns="http://www.w3.org/2000/svg" width="32" height="32" viewBox="0 0 32 32">
  <style>
    .st0{fill:#ffffff;}
    .st1{fill:#0d6efd;}
  </style>
  <g id="TechCare_Logo">
    <path class="st1" d="M16,2C8.3,2,2,8.3,2,16s6.3,14,14,14s14-6.3,14-14S23.7,2,16,2z M16,28c-6.6,0-12-5.4-12-12S9.4,4,16,4
      s12,5.4,12,12S22.6,28,16,28z"/>
    <path class="st1" d="M16,7c-5,0-9,4-9,9s4,9,9,9s9-4,9-9S21,7,16,7z M16,23c-3.9,0-7-3.1-7-7s3.1-7,7-7s7,3.1,7,7
      S19.9,23,16,23z"/>
    <path class="st0" d="M16,12c-2.2,0-4,1.8-4,4s1.8,4,4,4s4-1.8,4-4S18.2,12,16,12z M16,18c-1.1,0-2-0.9-2-2s0.9-2,2-2
      s2,0.9,2,2S17.1,18,16,18z"/>
    <rect x="15" y="9" class="st0" width="2" height="3"/>
    <rect x="15" y="20" class="st0" width="2" height="3"/>
    <rect x="20" y="15" class="st0" width="3" height="2"/>
    <rect x="9" y="15" class="st0" width="3" height="2"/>
  </g>
</svg> 